<mxfile host="Electron" modified="2023-12-27T12:45:36.728Z" agent="Mozilla/5.0 (Windows NT 10.0; Win64; x64) AppleWebKit/537.36 (KHTML, like Gecko) draw.io/22.1.2 Chrome/114.0.5735.289 Electron/25.9.4 Safari/537.36" etag="k7MvBIFtgZT-IQINicuo" version="22.1.2" type="device">
  <diagram id="HQOKvbAvWCf9tJ4usP6P" name="Nasdanika">
    <mxGraphModel dx="1434" dy="884" grid="1" gridSize="10" guides="1" tooltips="1" connect="1" arrows="1" fold="1" page="1" pageScale="1" pageWidth="850" pageHeight="1100" math="0" shadow="0">
      <root>
        <object label="" type="Action" page-element="true" feature-map="container:&#xa;  self: &#xa;    children:&#xa;      path: 1&#xa;" doc-ref="nasdanika.md" spec-ref="root-action.yml" id="0">
          <mxCell />
        </object>
        <object type="Action" feature-map="container:&#xa;  self: &#xa;    children:&#xa;      path: 1&#xa;" id="1">
          <mxCell parent="0" />
        </object>
        <UserObject label="Core" tooltip="Core functionality" type="Action" spec="location: core/index.html" feature-map="container:&#xa;  self: &#xa;    children:&#xa;      path: 1&#xa;" id="2E0ODkCKfUCVcVMOcFS6-1">
          <mxCell style="swimlane;fillColor=#d5e8d4;strokeColor=#82b366;" parent="1" vertex="1">
            <mxGeometry x="50" y="600" width="610" height="190" as="geometry" />
          </mxCell>
        </UserObject>
        <UserObject label="Common" link="modules/core/modules/common/index.html" tooltip="Common classes including the Nasdanika Execution Framework" id="2E0ODkCKfUCVcVMOcFS6-20">
          <mxCell style="rounded=1;whiteSpace=wrap;html=1;fillColor=#d5e8d4;strokeColor=#82b366;" parent="2E0ODkCKfUCVcVMOcFS6-1" vertex="1">
            <mxGeometry x="10" y="150" width="590" height="25" as="geometry" />
          </mxCell>
        </UserObject>
        <UserObject label="Drawio" link="modules/core/modules/drawio/index.html" tooltip="Java API for reading and writing Drawio files including base classes for loading of EMF models from Drawio diagrams" id="2E0ODkCKfUCVcVMOcFS6-15">
          <mxCell style="rounded=1;whiteSpace=wrap;html=1;fillColor=#d5e8d4;strokeColor=#82b366;" parent="2E0ODkCKfUCVcVMOcFS6-1" vertex="1">
            <mxGeometry x="10" y="30" width="120" height="25" as="geometry" />
          </mxCell>
        </UserObject>
        <UserObject label="EMF" link="modules/core/modules/emf/index.html" tooltip="EMF-related functionality - adapters, classes for building CLI&#39;s for executable models, persistence including loading of models from Excel files" id="2E0ODkCKfUCVcVMOcFS6-14">
          <mxCell style="rounded=1;whiteSpace=wrap;html=1;fillColor=#d5e8d4;strokeColor=#82b366;" parent="2E0ODkCKfUCVcVMOcFS6-1" vertex="1">
            <mxGeometry x="153" y="30" width="120" height="25" as="geometry" />
          </mxCell>
        </UserObject>
        <UserObject label="Flow" link="modules/core/modules/flow/index.html" tooltip="A model of process flows - activities performed by participants using resources" id="2E0ODkCKfUCVcVMOcFS6-13">
          <mxCell style="rounded=1;whiteSpace=wrap;html=1;fillColor=#d5e8d4;strokeColor=#82b366;" parent="2E0ODkCKfUCVcVMOcFS6-1" vertex="1">
            <mxGeometry x="10" y="120" width="120" height="25" as="geometry" />
          </mxCell>
        </UserObject>
        <UserObject label="Graph" link="modules/core/modules/graph/index.html" tooltip="Java API for working with directed graphs, such as diagrams. Includes mapping of graph elements to Java methods and fields to make graphs excutable. Also includes a base class for loading EMF models from graphs." id="2E0ODkCKfUCVcVMOcFS6-12">
          <mxCell style="rounded=1;whiteSpace=wrap;html=1;fillColor=#d5e8d4;strokeColor=#82b366;" parent="2E0ODkCKfUCVcVMOcFS6-1" vertex="1">
            <mxGeometry x="10" y="60" width="120" height="25" as="geometry" />
          </mxCell>
        </UserObject>
        <UserObject label="Ncore" link="modules/core/modules/ncore/index.html" tooltip="An Ecore model with shared model elements used in other models" id="2E0ODkCKfUCVcVMOcFS6-11">
          <mxCell style="rounded=1;whiteSpace=wrap;html=1;fillColor=#d5e8d4;strokeColor=#82b366;" parent="2E0ODkCKfUCVcVMOcFS6-1" vertex="1">
            <mxGeometry x="153" y="60" width="120" height="25" as="geometry" />
          </mxCell>
        </UserObject>
        <UserObject label="Persistence" link="modules/core/modules/persistence/index.html" tooltip="A persistence framework focusing on loading data from key/value formats such as YAML and JSON" id="2E0ODkCKfUCVcVMOcFS6-8">
          <mxCell style="rounded=1;whiteSpace=wrap;html=1;fillColor=#d5e8d4;strokeColor=#82b366;" parent="2E0ODkCKfUCVcVMOcFS6-1" vertex="1">
            <mxGeometry x="10" y="90" width="120" height="25" as="geometry" />
          </mxCell>
        </UserObject>
        <UserObject label="Resources" link="modules/core/modules/resources/index.html" tooltip="An abstraction layer for working with resources - units of content organized into directories, e.g. files or zip file entries. " id="2E0ODkCKfUCVcVMOcFS6-21">
          <mxCell style="rounded=1;whiteSpace=wrap;html=1;fillColor=#d5e8d4;strokeColor=#82b366;" parent="2E0ODkCKfUCVcVMOcFS6-1" vertex="1">
            <mxGeometry x="153" y="90" width="120" height="25" as="geometry" />
          </mxCell>
        </UserObject>
        <UserObject label="Exec" link="modules/core/modules/exec/index.html" tooltip="Ecore model of execution participants. Can be used for model-based code generation." id="2E0ODkCKfUCVcVMOcFS6-10">
          <mxCell style="swimlane;fillColor=#d5e8d4;strokeColor=#82b366;" parent="2E0ODkCKfUCVcVMOcFS6-1" vertex="1">
            <mxGeometry x="460" y="30" width="140" height="90" as="geometry" />
          </mxCell>
        </UserObject>
        <UserObject label="Model" link="modules/core/modules/exec/modules/model/index.html" tooltip="Ecore model containing flow control, content, and resource classes" id="2E0ODkCKfUCVcVMOcFS6-17">
          <mxCell style="rounded=1;whiteSpace=wrap;html=1;fillColor=#d5e8d4;strokeColor=#82b366;" parent="2E0ODkCKfUCVcVMOcFS6-10" vertex="1">
            <mxGeometry x="10" y="60" width="120" height="25" as="geometry" />
          </mxCell>
        </UserObject>
        <UserObject label="Generators" link="modules/core/modules/exec/modules/gen/index.html" tooltip="Adapters to execution participants" id="2E0ODkCKfUCVcVMOcFS6-16">
          <mxCell style="rounded=1;whiteSpace=wrap;html=1;fillColor=#d5e8d4;strokeColor=#82b366;" parent="2E0ODkCKfUCVcVMOcFS6-10" vertex="1">
            <mxGeometry x="10" y="30" width="120" height="25" as="geometry" />
          </mxCell>
        </UserObject>
        <UserObject label="Ncore" link="modules/core/modules/ncore/index.html" tooltip="Nasdanika foundation Ecore model and generators with classes used in other models." id="p4zttalHGiooKWFctdtz-10">
          <mxCell style="swimlane;fillColor=#d5e8d4;strokeColor=#82b366;" parent="2E0ODkCKfUCVcVMOcFS6-1" vertex="1">
            <mxGeometry x="297" y="30" width="140" height="90" as="geometry" />
          </mxCell>
        </UserObject>
        <UserObject label="Model" link="modules/core/modules/ncore/modules/model/index.html" tooltip="Nasdanika foundational Ecore model containing classes used by classes in other models." id="p4zttalHGiooKWFctdtz-11">
          <mxCell style="rounded=1;whiteSpace=wrap;html=1;fillColor=#d5e8d4;strokeColor=#82b366;" parent="p4zttalHGiooKWFctdtz-10" vertex="1">
            <mxGeometry x="10" y="60" width="120" height="25" as="geometry" />
          </mxCell>
        </UserObject>
        <UserObject label="Generators" link="modules/core/modules/ncore/modules/gen/index.html" tooltip="Adapters to execution participants" id="p4zttalHGiooKWFctdtz-12">
          <mxCell style="rounded=1;whiteSpace=wrap;html=1;fillColor=#d5e8d4;strokeColor=#82b366;" parent="p4zttalHGiooKWFctdtz-10" vertex="1">
            <mxGeometry x="10" y="30" width="120" height="25" as="geometry" />
          </mxCell>
        </UserObject>
        <UserObject label="HTML" tooltip="Libraries for generating HTML - elements, pages, sites" type="Action" spec="location: html/index.html" feature-map="container:&#xa;  self: &#xa;    children:&#xa;      path: 1&#xa;" id="2E0ODkCKfUCVcVMOcFS6-2">
          <mxCell style="swimlane;fillColor=#dae8fc;strokeColor=#6c8ebf;" parent="1" vertex="1">
            <mxGeometry x="50" y="380" width="610" height="210" as="geometry" />
          </mxCell>
        </UserObject>
        <mxCell id="lhluwzQ8KuUBgaCgPu3p-3" value="HTML" style="rounded=1;whiteSpace=wrap;html=1;fillColor=#dae8fc;strokeColor=#6c8ebf;" parent="2E0ODkCKfUCVcVMOcFS6-2" vertex="1">
          <mxGeometry x="10" y="180" width="100" height="25" as="geometry" />
        </mxCell>
        <mxCell id="lhluwzQ8KuUBgaCgPu3p-5" value="Bootstrap" style="rounded=1;whiteSpace=wrap;html=1;fillColor=#dae8fc;strokeColor=#6c8ebf;" parent="2E0ODkCKfUCVcVMOcFS6-2" vertex="1">
          <mxGeometry x="10" y="150" width="100" height="25" as="geometry" />
        </mxCell>
        <mxCell id="lhluwzQ8KuUBgaCgPu3p-4" value="JsTree" style="rounded=1;whiteSpace=wrap;html=1;fillColor=#dae8fc;strokeColor=#6c8ebf;" parent="2E0ODkCKfUCVcVMOcFS6-2" vertex="1">
          <mxGeometry x="10" y="120" width="100" height="25" as="geometry" />
        </mxCell>
        <UserObject label="Models" tooltip="Ecore models for generating HTML markup, pages, and sites/applications" feature-map="container:&#xa;  self: &#xa;    children:&#xa;      path: 1&#xa;" type="Action" spec="location: models/index.html" id="lhluwzQ8KuUBgaCgPu3p-12">
          <mxCell style="swimlane;fillColor=#dae8fc;strokeColor=#6c8ebf;" parent="2E0ODkCKfUCVcVMOcFS6-2" vertex="1">
            <mxGeometry x="145" y="30" width="460" height="160" as="geometry" />
          </mxCell>
        </UserObject>
        <UserObject label="HTML" link="modules/html/modules/models/modules/html/index.html" tooltip="Ecore model and adapters for HTML generation" id="lhluwzQ8KuUBgaCgPu3p-9">
          <mxCell style="swimlane;fillColor=#dae8fc;strokeColor=#6c8ebf;" parent="lhluwzQ8KuUBgaCgPu3p-12" vertex="1">
            <mxGeometry x="10" y="30" width="140" height="90" as="geometry" />
          </mxCell>
        </UserObject>
        <UserObject label="Model" link="modules/html/modules/models/modules/html/modules/model/index.html" tooltip="Ecore model of HTML elements" id="lhluwzQ8KuUBgaCgPu3p-10">
          <mxCell style="rounded=1;whiteSpace=wrap;html=1;fillColor=#dae8fc;strokeColor=#6c8ebf;" parent="lhluwzQ8KuUBgaCgPu3p-9" vertex="1">
            <mxGeometry x="10" y="60" width="120" height="25" as="geometry" />
          </mxCell>
        </UserObject>
        <UserObject label="Generators" link="modules/html/modules/models/modules/html/modules/gen/index.html" tooltip="Generator adapters for the HTML model" id="lhluwzQ8KuUBgaCgPu3p-11">
          <mxCell style="rounded=1;whiteSpace=wrap;html=1;fillColor=#dae8fc;strokeColor=#6c8ebf;" parent="lhluwzQ8KuUBgaCgPu3p-9" vertex="1">
            <mxGeometry x="10" y="30" width="120" height="25" as="geometry" />
          </mxCell>
        </UserObject>
        <UserObject label="Bootstrap" link="modules/html/modules/models/modules/bootstrap/index.html" tooltip="Ecore model and adapters for generation of Bootstrap markup" id="lhluwzQ8KuUBgaCgPu3p-13">
          <mxCell style="swimlane;fillColor=#dae8fc;strokeColor=#6c8ebf;" parent="lhluwzQ8KuUBgaCgPu3p-12" vertex="1">
            <mxGeometry x="160" y="30" width="140" height="90" as="geometry" />
          </mxCell>
        </UserObject>
        <UserObject label="Model" link="modules/html/modules/models/modules/bootstrap/modules/model/index.html" tooltip="Ecore model of Bootstrap elements" id="lhluwzQ8KuUBgaCgPu3p-14">
          <mxCell style="rounded=1;whiteSpace=wrap;html=1;fillColor=#dae8fc;strokeColor=#6c8ebf;" parent="lhluwzQ8KuUBgaCgPu3p-13" vertex="1">
            <mxGeometry x="10" y="60" width="120" height="25" as="geometry" />
          </mxCell>
        </UserObject>
        <UserObject label="Generators" link="modules/html/modules/models/modules/bootstrap/modules/gen/index.html" tooltip="Generator adapters for the Bootstrap model" id="lhluwzQ8KuUBgaCgPu3p-15">
          <mxCell style="rounded=1;whiteSpace=wrap;html=1;fillColor=#dae8fc;strokeColor=#6c8ebf;" parent="lhluwzQ8KuUBgaCgPu3p-13" vertex="1">
            <mxGeometry x="10" y="30" width="120" height="25" as="geometry" />
          </mxCell>
        </UserObject>
        <UserObject label="App" tooltip="Ecore model of an application (a hierarchy of actions) and adapters for generation of HTML sites from the model" type="Action" feature-map="container:&#xa;  self: &#xa;    children:&#xa;      path: 1&#xa;" spec="location: app/index.html" id="lhluwzQ8KuUBgaCgPu3p-16">
          <mxCell style="swimlane;fillColor=#dae8fc;strokeColor=#6c8ebf;" parent="lhluwzQ8KuUBgaCgPu3p-12" vertex="1">
            <mxGeometry x="310" y="30" width="140" height="120" as="geometry" />
          </mxCell>
        </UserObject>
        <UserObject label="Drawio" link="modules/html/modules/models/modules/app/modules/drawio/index.html" tooltip="Semantic mapping of Drawio diagrams to the application model. Allows to generate HTML sites from diagrams." id="lhluwzQ8KuUBgaCgPu3p-17">
          <mxCell style="rounded=1;whiteSpace=wrap;html=1;fillColor=#dae8fc;strokeColor=#6c8ebf;" parent="lhluwzQ8KuUBgaCgPu3p-16" vertex="1">
            <mxGeometry x="10" y="60" width="120" height="25" as="geometry" />
          </mxCell>
        </UserObject>
        <UserObject label="Generators" link="modules/html/modules/models/modules/app/modules/gen/index.html" tooltip="Generator adapters for the application model" id="lhluwzQ8KuUBgaCgPu3p-18">
          <mxCell style="rounded=1;whiteSpace=wrap;html=1;fillColor=#dae8fc;strokeColor=#6c8ebf;" parent="lhluwzQ8KuUBgaCgPu3p-16" vertex="1">
            <mxGeometry x="10" y="30" width="120" height="25" as="geometry" />
          </mxCell>
        </UserObject>
        <UserObject label="Model" tooltip="Ecore model of application elements" spec="location: model/index.html" type="Action" id="lhluwzQ8KuUBgaCgPu3p-22">
          <mxCell style="rounded=1;whiteSpace=wrap;html=1;fillColor=#dae8fc;strokeColor=#6c8ebf;" parent="lhluwzQ8KuUBgaCgPu3p-16" vertex="1">
            <mxGeometry x="10" y="90" width="120" height="25" as="geometry" />
          </mxCell>
        </UserObject>
        <UserObject label="HTML" link="modules/html/modules/html/index.html" tooltip="Fluent Java API for generating HTML" id="lhluwzQ8KuUBgaCgPu3p-23">
          <mxCell style="rounded=1;whiteSpace=wrap;html=1;fillColor=#dae8fc;strokeColor=#6c8ebf;" parent="2E0ODkCKfUCVcVMOcFS6-2" vertex="1">
            <mxGeometry x="10" y="180" width="120" height="25" as="geometry" />
          </mxCell>
        </UserObject>
        <UserObject label="Bootstrap" link="modules/html/modules/bootstrap/index.html" tooltip="Fluent Java API for generation of Bootstrap markup" id="lhluwzQ8KuUBgaCgPu3p-24">
          <mxCell style="rounded=1;whiteSpace=wrap;html=1;fillColor=#dae8fc;strokeColor=#6c8ebf;" parent="2E0ODkCKfUCVcVMOcFS6-2" vertex="1">
            <mxGeometry x="10" y="150" width="120" height="25" as="geometry" />
          </mxCell>
        </UserObject>
        <UserObject label="JsTree" link="modules/html/modules/jstree/index.html" tooltip="Java API for generating JsTree definitions" id="lhluwzQ8KuUBgaCgPu3p-25">
          <mxCell style="rounded=1;whiteSpace=wrap;html=1;fillColor=#dae8fc;strokeColor=#6c8ebf;" parent="2E0ODkCKfUCVcVMOcFS6-2" vertex="1">
            <mxGeometry x="10" y="120" width="120" height="25" as="geometry" />
          </mxCell>
        </UserObject>
        <UserObject label="Flow" link="modules/html/modules/flow/index.html" tooltip="Generation adapters for the flow model to generate Application model and then documentation sites" id="lhluwzQ8KuUBgaCgPu3p-26">
          <mxCell style="rounded=1;whiteSpace=wrap;html=1;fillColor=#dae8fc;strokeColor=#6c8ebf;" parent="2E0ODkCKfUCVcVMOcFS6-2" vertex="1">
            <mxGeometry x="10" y="30" width="120" height="25" as="geometry" />
          </mxCell>
        </UserObject>
        <UserObject label="Ecore" link="modules/html/modules/ecore/index.html" tooltip="Generates HTML documentation for Ecore models" id="lhluwzQ8KuUBgaCgPu3p-27">
          <mxCell style="rounded=1;whiteSpace=wrap;html=1;fillColor=#dae8fc;strokeColor=#6c8ebf;" parent="2E0ODkCKfUCVcVMOcFS6-2" vertex="1">
            <mxGeometry x="10" y="60" width="120" height="25" as="geometry" />
          </mxCell>
        </UserObject>
        <UserObject label="EMF" link="modules/html/modules/emf/index.html" tooltip="Base classes for generating action models from Ecore models" id="lhluwzQ8KuUBgaCgPu3p-21">
          <mxCell style="rounded=1;whiteSpace=wrap;html=1;fillColor=#dae8fc;strokeColor=#6c8ebf;" parent="2E0ODkCKfUCVcVMOcFS6-2" vertex="1">
            <mxGeometry x="10" y="90" width="120" height="25" as="geometry" />
          </mxCell>
        </UserObject>
        <UserObject label="Demos" link="modules/demos/index.html" tooltip="Showcases of applications of Nasdanika technologies" id="2E0ODkCKfUCVcVMOcFS6-4">
          <mxCell style="swimlane;fillColor=#FFF2CC;strokeColor=#36393d;" parent="1" vertex="1">
            <mxGeometry x="180" y="240" width="480" height="130" as="geometry" />
          </mxCell>
        </UserObject>
        <UserObject label="App Drawio" link="modules/demos/modules/app-drawio/index.html" tooltip="Demonstrations of generation of HTML sites from Drawio diagrams" id="lhluwzQ8KuUBgaCgPu3p-28">
          <mxCell style="swimlane;fillColor=#fff2cc;strokeColor=#d6b656;" parent="2E0ODkCKfUCVcVMOcFS6-4" vertex="1">
            <mxGeometry x="10" y="60" width="335" height="60" as="geometry" />
          </mxCell>
        </UserObject>
        <UserObject label="Map" link="modules/demos/modules/app-drawio/modules/map/index.html" tooltip="Demonstrates generation of a documentation site from a (mind) map Drawio diagram" id="lhluwzQ8KuUBgaCgPu3p-31">
          <mxCell style="rounded=1;whiteSpace=wrap;html=1;fillColor=#fff2cc;strokeColor=#d6b656;" parent="lhluwzQ8KuUBgaCgPu3p-28" vertex="1">
            <mxGeometry x="220" y="30" width="100" height="25" as="geometry" />
          </mxCell>
        </UserObject>
        <UserObject label="Flow" link="modules/demos/modules/app-drawio/modules/flow-actions/index.html" tooltip="Demonstrates generation of a documentation site from a flow/process Drawio diagram" id="lhluwzQ8KuUBgaCgPu3p-30">
          <mxCell style="rounded=1;whiteSpace=wrap;html=1;fillColor=#fff2cc;strokeColor=#d6b656;" parent="lhluwzQ8KuUBgaCgPu3p-28" vertex="1">
            <mxGeometry x="115" y="30" width="100" height="25" as="geometry" />
          </mxCell>
        </UserObject>
        <UserObject label="Actions" link="modules/demos/modules/app-drawio/modules/actions/index.html" tooltip="Demonstrates generation of a documentation site from a Drawio diagram using Amazon AWS deployment diagram as an example" id="lhluwzQ8KuUBgaCgPu3p-29">
          <mxCell style="rounded=1;whiteSpace=wrap;html=1;fillColor=#fff2cc;strokeColor=#d6b656;" parent="lhluwzQ8KuUBgaCgPu3p-28" vertex="1">
            <mxGeometry x="10" y="30" width="100" height="25" as="geometry" />
          </mxCell>
        </UserObject>
        <UserObject label="TOGAF" link="modules/togaf/index.html" tooltip="Capturing of TOGAF concepts in models." id="lhluwzQ8KuUBgaCgPu3p-32">
          <mxCell style="swimlane;fillColor=#fff2cc;strokeColor=#d6b656;" parent="2E0ODkCKfUCVcVMOcFS6-4" vertex="1">
            <mxGeometry x="350" y="60" width="120" height="60" as="geometry" />
          </mxCell>
        </UserObject>
        <UserObject label="ADM" link="modules/togaf/modules/adm/index.html" tooltip="A partial flow model of TOGAF ADM" id="lhluwzQ8KuUBgaCgPu3p-34">
          <mxCell style="rounded=1;whiteSpace=wrap;html=1;fillColor=#fff2cc;strokeColor=#d6b656;" parent="lhluwzQ8KuUBgaCgPu3p-32" vertex="1">
            <mxGeometry x="10" y="30" width="100" height="25" as="geometry" />
          </mxCell>
        </UserObject>
        <UserObject label="Drawio Semantic Mapping" link="https://docs.nasdanika.org/demo-drawio-semantic-mapping/" tooltip="Demonstrates generation of a documentation site from a Drawio diagram using semantic mapping to Ncore Composite" id="p4zttalHGiooKWFctdtz-1">
          <mxCell style="rounded=1;whiteSpace=wrap;html=1;fillColor=#fff2cc;strokeColor=#d6b656;" parent="2E0ODkCKfUCVcVMOcFS6-4" vertex="1">
            <mxGeometry x="20" y="30" width="310" height="25" as="geometry" />
          </mxCell>
        </UserObject>
        <UserObject label="docs.nasdanika.org" tooltip="This site - generated from a distributed Engineering model with Ecore model documentation mounted to it and JavaDoc linked" id="2E0ODkCKfUCVcVMOcFS6-6">
          <mxCell style="rounded=1;whiteSpace=wrap;html=1;fillColor=#dae8fc;strokeColor=#6c8ebf;gradientColor=#7ea6e0;" parent="1" vertex="1">
            <mxGeometry x="50" y="120" width="610" height="40" as="geometry" />
          </mxCell>
        </UserObject>
        <UserObject label="Engineering" link="modules/engineering/index.html" tooltip="Engineering model. Used to generate this site." id="lhluwzQ8KuUBgaCgPu3p-6">
          <mxCell style="swimlane;fillColor=#ffe6cc;strokeColor=#d79b00;" parent="1" vertex="1">
            <mxGeometry x="50" y="240" width="120" height="90" as="geometry" />
          </mxCell>
        </UserObject>
        <UserObject label="Model" link="modules/engineering/modules/model/index.html" tooltip="Ecore model of engineering concepts" id="lhluwzQ8KuUBgaCgPu3p-7">
          <mxCell style="rounded=1;whiteSpace=wrap;html=1;fillColor=#ffe6cc;strokeColor=#d79b00;" parent="lhluwzQ8KuUBgaCgPu3p-6" vertex="1">
            <mxGeometry x="10" y="60" width="100" height="25" as="geometry" />
          </mxCell>
        </UserObject>
        <UserObject label="Generators" link="modules/engineering/modules/gen/index.html" tooltip="Adapters to generate Application model from Engineering model." id="lhluwzQ8KuUBgaCgPu3p-8">
          <mxCell style="rounded=1;whiteSpace=wrap;html=1;fillColor=#ffe6cc;strokeColor=#d79b00;" parent="lhluwzQ8KuUBgaCgPu3p-6" vertex="1">
            <mxGeometry x="10" y="30" width="100" height="25" as="geometry" />
          </mxCell>
        </UserObject>
        <UserObject label="Architecture Framework (NASDAF)" link="modules/architecture-framework/index.html" tooltip="Application of Nasdanika and a number of other open source technologies to architecture development" id="z9Gb3d4_pyM-L32CTY4R-1">
          <mxCell style="swimlane;whiteSpace=wrap;html=1;fillColor=#FFF4C3;" parent="1" vertex="1">
            <mxGeometry x="50" y="170" width="610" height="60" as="geometry" />
          </mxCell>
        </UserObject>
        <UserObject label="Model" link="modules/architecture-framework/modules/model/index.html" tooltip="Ecore (meta) model" id="p4zttalHGiooKWFctdtz-9">
          <mxCell style="rounded=1;whiteSpace=wrap;html=1;fillColor=#FFF4C3;strokeColor=#d6b656;" parent="z9Gb3d4_pyM-L32CTY4R-1" vertex="1">
            <mxGeometry x="10" y="30" width="190" height="25" as="geometry" />
          </mxCell>
        </UserObject>
        <UserObject label="Generators" link="modules/architecture-framework/modules/gen/index.html" tooltip="Action builder adapters for model classes" id="z9Gb3d4_pyM-L32CTY4R-2">
          <mxCell style="rounded=1;whiteSpace=wrap;html=1;fillColor=#FFF4C3;strokeColor=#d6b656;" parent="z9Gb3d4_pyM-L32CTY4R-1" vertex="1">
            <mxGeometry x="210" y="30" width="190" height="25" as="geometry" />
          </mxCell>
        </UserObject>
        <UserObject label="Demo" link="modules/architecture-framework/modules/demo/index.html" tooltip="Demo of semantic mapping to NASDAF metamodel" id="z9Gb3d4_pyM-L32CTY4R-3">
          <mxCell style="rounded=1;whiteSpace=wrap;html=1;fillColor=#FFF4C3;strokeColor=#d6b656;" parent="z9Gb3d4_pyM-L32CTY4R-1" vertex="1">
            <mxGeometry x="410" y="30" width="190" height="25" as="geometry" />
          </mxCell>
        </UserObject>
      </root>
    </mxGraphModel>
  </diagram>
</mxfile>
